<?xml version="1.0" encoding="UTF-8" standalone="no"?>
<!DOCTYPE svg PUBLIC "-//W3C//DTD SVG 1.1//EN" "http://www.w3.org/Graphics/SVG/1.1/DTD/svg11.dtd">
<!-- Generated by Microsoft Visio, SVG Export Cartesian Drawings 2.svg Page-1 -->
<svg xmlns="http://www.w3.org/2000/svg" xmlns:xlink="http://www.w3.org/1999/xlink" xmlns:ev="http://www.w3.org/2001/xml-events"
		xmlns:v="http://schemas.microsoft.com/visio/2003/SVGExtensions/" width="2.32978in" height="1.98016in"
		viewBox="0 0 167.744 142.572" xml:space="preserve" color-interpolation-filters="sRGB" class="st14">
	<v:documentProperties v:langID="1033" v:metric="true" v:viewMarkup="false"/>

	<style type="text/css">
	<![CDATA[
		.st1 {fill:#f9eeb0;stroke:#f9eeb0;stroke-width:0.25}
		.st2 {fill:#c08f70;stroke:#8f603f;stroke-width:0.75}
		.st3 {stroke:#8f603f;stroke-linecap:round;stroke-linejoin:round;stroke-width:1}
		.st4 {fill:none;stroke:none;stroke-width:0.25}
		.st5 {fill:#041949;font-family:Calibri;font-size:1.00001em;font-weight:bold}
		.st6 {marker-end:url(#mrkr13-75);marker-start:url(#mrkr13-73);stroke:#aabce6;stroke-linecap:round;stroke-linejoin:round;stroke-width:1}
		.st7 {fill:#aabce6;fill-opacity:1;stroke:#aabce6;stroke-opacity:1;stroke-width:0.28409090909091}
		.st8 {marker-end:url(#mrkr5-92);marker-start:url(#mrkr5-90);stroke:#aabce6;stroke-linecap:round;stroke-linejoin:round;stroke-width:1}
		.st9 {fill:#ffffff;stroke:#041949;stroke-width:0.75}
		.st10 {fill:#feffff;stroke:#041749;stroke-width:0.75}
		.st11 {marker-end:url(#mrkr13-178);stroke:#ff0000;stroke-linecap:round;stroke-linejoin:round;stroke-width:1.5}
		.st12 {fill:#ff0000;fill-opacity:1;stroke:#ff0000;stroke-opacity:1;stroke-width:0.37313432835821}
		.st13 {fill:#041749;stroke:#041749;stroke-width:0.75}
		.st14 {fill:none;fill-rule:evenodd;font-size:12px;overflow:visible;stroke-linecap:square;stroke-miterlimit:3}
	]]>
	</style>

	<defs id="Markers">
		<g id="lend13">
			<path d="M 3 1 L 0 0 L 3 -1 L 3 1 " style="stroke:none"/>
		</g>
		<marker id="mrkr13-73" class="st7" v:arrowType="13" v:arrowSize="2" v:setback="10.2" refX="10.2" orient="auto"
				markerUnits="strokeWidth" overflow="visible">
			<use xlink:href="#lend13" transform="scale(3.52) "/>
		</marker>
		<marker id="mrkr13-75" class="st7" v:arrowType="13" v:arrowSize="2" v:setback="10.56" refX="-10.56" orient="auto"
				markerUnits="strokeWidth" overflow="visible">
			<use xlink:href="#lend13" transform="scale(-3.52,-3.52) "/>
		</marker>
		<g id="lend5">
			<path d="M 2 1 L 0 0 L 1.98117 -0.993387 C 1.67173 -0.364514 1.67301 0.372642 1.98465 1.00043 " style="stroke:none"/>
		</g>
		<marker id="mrkr5-90" class="st7" v:arrowType="5" v:arrowSize="2" v:setback="5.8" refX="5.8" orient="auto"
				markerUnits="strokeWidth" overflow="visible">
			<use xlink:href="#lend5" transform="scale(3.52) "/>
		</marker>
		<marker id="mrkr5-92" class="st7" v:arrowType="5" v:arrowSize="2" v:setback="6.16" refX="-6.16" orient="auto"
				markerUnits="strokeWidth" overflow="visible">
			<use xlink:href="#lend5" transform="scale(-3.52,-3.52) "/>
		</marker>
		<marker id="mrkr13-178" class="st12" v:arrowType="13" v:arrowSize="2" v:setback="8.04" refX="-8.04" orient="auto"
				markerUnits="strokeWidth" overflow="visible">
			<use xlink:href="#lend13" transform="scale(-2.68,-2.68) "/>
		</marker>
	</defs>
	<g v:mID="0" v:index="1" v:groupContext="foregroundPage">
		<title>Page-1</title>
		<v:pageProperties v:drawingScale="0.0393701" v:pageScale="0.0393701" v:drawingUnits="24" v:shadowOffsetX="8.50394"
				v:shadowOffsetY="-8.50394"/>
		<g id="shape77-1" v:mID="77" v:groupContext="shape" transform="translate(2.51772,-1.43488)">
			<title>Sheet.77</title>
			<rect x="0" y="2.86942" width="162.709" height="139.702" class="st1"/>
		</g>
		<g id="group153-3" transform="translate(0.25,-1.43488)" v:mID="153" v:groupContext="group">
			<title>Sheet.153</title>
			<g id="shape2-4" v:mID="2" v:groupContext="shape" transform="translate(27.8148,-11.6441)">
				<title>Sheet.2</title>
				<rect x="0" y="25.9841" width="116.588" height="116.588" class="st2"/>
			</g>
			<g id="group3-6" transform="translate(27.9885,-11.8132)" v:mID="3" v:groupContext="group">
				<title>Sheet.3</title>
				<g id="shape4-7" v:mID="4" v:groupContext="shape" transform="translate(0.0439483,-20.3631)">
					<title>Sheet.4</title>
					<path d="M0 142.57 L116.29 142.57" class="st3"/>
				</g>
				<g id="shape5-10" v:mID="5" v:groupContext="shape" transform="translate(0.0800881,-97.3208)">
					<title>Sheet.5</title>
					<path d="M0 142.57 L116.33 142.57" class="st3"/>
				</g>
				<g id="shape6-13" v:mID="6" v:groupContext="shape" transform="translate(180.936,26.2581) rotate(90)">
					<title>Sheet.6</title>
					<path d="M0 142.57 L58 142.57" class="st3"/>
				</g>
				<g id="shape7-16" v:mID="7" v:groupContext="shape" transform="translate(162.498,26.2581) rotate(90)">
					<title>Sheet.7</title>
					<path d="M0 142.57 L58 142.57" class="st3"/>
				</g>
				<g id="shape8-19" v:mID="8" v:groupContext="shape" transform="translate(0.124036,-78.6754)">
					<title>Sheet.8</title>
					<path d="M0 142.57 L116.29 142.57" class="st3"/>
				</g>
				<g id="shape9-22" v:mID="9" v:groupContext="shape" transform="translate(239.436,26.1819) rotate(90)">
					<title>Sheet.9</title>
					<path d="M0 142.57 L58 142.57" class="st3"/>
				</g>
				<g id="shape10-25" v:mID="10" v:groupContext="shape" transform="translate(220.998,26.1819) rotate(90)">
					<title>Sheet.10</title>
					<path d="M0 142.57 L58 142.57" class="st3"/>
				</g>
				<g id="shape11-28" v:mID="11" v:groupContext="shape" transform="translate(0,-39.0086)">
					<title>Sheet.11</title>
					<path d="M0 142.57 L116.33 142.57" class="st3"/>
				</g>
				<g id="shape12-31" v:mID="12" v:groupContext="shape" transform="translate(180.856,84.5703) rotate(90)">
					<title>Sheet.12</title>
					<path d="M0 142.57 L58 142.57" class="st3"/>
				</g>
				<g id="shape13-34" v:mID="13" v:groupContext="shape" transform="translate(162.418,84.5703) rotate(90)">
					<title>Sheet.13</title>
					<path d="M0 142.57 L58 142.57" class="st3"/>
				</g>
				<g id="shape14-37" v:mID="14" v:groupContext="shape" transform="translate(239.356,84.4941) rotate(90)">
					<title>Sheet.14</title>
					<path d="M0 142.57 L58 142.57" class="st3"/>
				</g>
				<g id="shape15-40" v:mID="15" v:groupContext="shape" transform="translate(220.918,84.4941) rotate(90)">
					<title>Sheet.15</title>
					<path d="M0 142.57 L58 142.57" class="st3"/>
				</g>
			</g>
			<g id="shape16-43" v:mID="16" v:groupContext="shape" transform="translate(76.1052,-128.172)">
				<title>Sheet.16</title>
				<desc>N</desc>
				<v:textBlock v:margins="rect(4,4,4,4)" v:tabSpace="42.5197"/>
				<v:textRect cx="10.0134" cy="136.806" width="20.03" height="11.5306"/>
				<rect x="0" y="131.041" width="20.0269" height="11.5306" class="st4"/>
				<text x="6.06" y="140.41" class="st5" v:langID="1033"><v:paragraph v:horizAlign="1"/><v:tabList/>N</text>			</g>
			<g id="shape17-46" v:mID="17" v:groupContext="shape" transform="translate(7.89396,-64.1781)">
				<title>Sheet.17</title>
				<desc>W</desc>
				<v:textBlock v:margins="rect(4,4,4,4)" v:tabSpace="42.5197"/>
				<v:textRect cx="10.0134" cy="136.806" width="20.03" height="11.5306"/>
				<rect x="0" y="131.041" width="20.0269" height="11.5306" class="st4"/>
				<text x="5.15" y="140.41" class="st5" v:langID="1033"><v:paragraph v:horizAlign="2"/><v:tabList/>W</text>			</g>
			<g id="shape18-49" v:mID="18" v:groupContext="shape" transform="translate(144.286,-64.5929)">
				<title>Sheet.18</title>
				<desc>E</desc>
				<v:textBlock v:margins="rect(4,4,4,4)" v:tabSpace="42.5197"/>
				<v:textRect cx="10.0134" cy="136.806" width="20.03" height="11.5306"/>
				<rect x="0" y="131.041" width="20.0269" height="11.5306" class="st4"/>
				<text x="4" y="140.41" class="st5" v:langID="1033"><v:paragraph/><v:tabList/>E</text>			</g>
			<g id="shape19-52" v:mID="19" v:groupContext="shape" transform="translate(76.1052,-0.320295)">
				<title>Sheet.19</title>
				<desc>S</desc>
				<v:textBlock v:margins="rect(4,4,4,4)" v:tabSpace="42.5197"/>
				<v:textRect cx="10.0134" cy="136.806" width="20.03" height="11.5306"/>
				<rect x="0" y="131.041" width="20.0269" height="11.5306" class="st4"/>
				<text x="7.18" y="140.41" class="st5" v:langID="1033"><v:paragraph v:horizAlign="1"/><v:tabList/>S</text>			</g>
			<g id="shape20-55" v:mID="20" v:groupContext="shape" transform="translate(144.949,-127.584)">
				<title>Sheet.20</title>
				<desc>NE</desc>
				<v:textBlock v:margins="rect(4,4,4,4)" v:tabSpace="42.5197"/>
				<v:textRect cx="11.1473" cy="136.806" width="22.3" height="11.5306"/>
				<rect x="0" y="131.041" width="22.2946" height="11.5306" class="st4"/>
				<text x="4.27" y="140.41" class="st5" v:langID="1033"><v:paragraph v:horizAlign="1"/><v:tabList/>NE</text>			</g>
			<g id="shape21-58" v:mID="21" v:groupContext="shape" transform="translate(144.683,0)">
				<title>Sheet.21</title>
				<desc>SE</desc>
				<v:textBlock v:margins="rect(4,4,4,4)" v:tabSpace="42.5197"/>
				<v:textRect cx="10.0134" cy="136.806" width="20.03" height="11.5306"/>
				<rect x="0" y="131.041" width="20.0269" height="11.5306" class="st4"/>
				<text x="4.25" y="140.41" class="st5" v:langID="1033"><v:paragraph v:horizAlign="1"/><v:tabList/>SE</text>			</g>
			<g id="shape22-61" v:mID="22" v:groupContext="shape" transform="translate(-1.9984E-014,-127.584)">
				<title>Sheet.22</title>
				<desc>NW</desc>
				<v:textBlock v:margins="rect(4,4,4,4)" v:tabSpace="42.5197"/>
				<v:textRect cx="13.9604" cy="136.806" width="27.93" height="11.5306"/>
				<rect x="0" y="131.041" width="27.9209" height="11.5306" class="st4"/>
				<text x="4.57" y="140.41" class="st5" v:langID="1033"><v:paragraph v:horizAlign="1"/><v:tabList/>NW</text>			</g>
			<g id="shape23-64" v:mID="23" v:groupContext="shape" transform="translate(3.27103,-0.266913)">
				<title>Sheet.23</title>
				<desc>SW</desc>
				<v:textBlock v:margins="rect(4,4,4,4)" v:tabSpace="42.5197"/>
				<v:textRect cx="12.3249" cy="136.806" width="24.65" height="11.5306"/>
				<rect x="0" y="131.041" width="24.6498" height="11.5306" class="st4"/>
				<text x="4.05" y="140.41" class="st5" v:langID="1033"><v:paragraph v:horizAlign="1"/><v:tabList/>SW</text>			</g>
			<g id="shape24-67" v:mID="24" v:groupContext="shape" transform="translate(-72.7393,29.9769) rotate(-45)">
				<title>Sheet.24</title>
				<path d="M10.2 142.57 L10.56 142.57 L153.62 142.57" class="st6"/>
			</g>
			<g id="shape25-76" v:mID="25" v:groupContext="shape" transform="translate(128.598,-86.4016) rotate(45)">
				<title>Sheet.25</title>
				<path d="M10.2 142.57 L10.56 142.57 L154.43 142.57" class="st6"/>
			</g>
			<g id="group26-83" transform="translate(27.8249,-11.5322)" v:mID="26" v:groupContext="group">
				<title>Sheet.26</title>
				<g id="shape27-84" v:mID="27" v:groupContext="shape" transform="translate(200.865,25.9841) rotate(90)">
					<title>Sheet.27</title>
					<path d="M5.8 142.57 L6.16 142.57 L110.43 142.57" class="st8"/>
				</g>
				<g id="shape28-93" v:mID="28" v:groupContext="shape" transform="translate(-3.19744E-014,-58.4539)">
					<title>Sheet.28</title>
					<path d="M5.8 142.57 L6.16 142.57 L110.43 142.57" class="st8"/>
				</g>
			</g>
			<g id="group29-100" transform="translate(-22.6909,106.454) rotate(-90)" v:mID="29" v:groupContext="group">
				<title>Sheet.29</title>
			</g>
			<g id="shape30-101" v:mID="30" v:groupContext="shape" transform="translate(11.1011,-47.0151) rotate(-45)">
				<title>Block Arrow.167</title>
				<v:userDefs>
					<v:ud v:nameU="visVersion" v:prompt="" v:val="VT0(15):26"/>
				</v:userDefs>
				<path d="M0 142.57 L4.86 142.57 L9.72 137.71 L4.86 132.85 L0 132.85 L0 142.57 Z" class="st9"/>
			</g>
			<g id="shape31-103" v:mID="31" v:groupContext="shape" transform="translate(203.425,-56.3177) rotate(45)">
				<title>Sheet.31</title>
				<rect x="0" y="138.285" width="1.94863" height="4.28699" class="st9"/>
			</g>
			<g id="shape32-105" v:mID="32" v:groupContext="shape" transform="translate(213.78,-45.9631) rotate(45)">
				<title>Sheet.32</title>
				<rect x="0" y="138.285" width="1.94863" height="4.28699" class="st9"/>
			</g>
			<g id="shape36-107" v:mID="36" v:groupContext="shape" transform="translate(-38.7806,2.86411) rotate(-45)">
				<title>Block Arrow.175</title>
				<v:userDefs>
					<v:ud v:nameU="visVersion" v:prompt="" v:val="VT0(15):26"/>
				</v:userDefs>
				<path d="M0 142.57 L4.86 142.57 L9.72 137.71 L4.86 132.85 L0 132.85 L0 142.57 Z" class="st9"/>
			</g>
			<g id="shape37-109" v:mID="37" v:groupContext="shape" transform="translate(153.543,-6.43852) rotate(45)">
				<title>Sheet.37</title>
				<rect x="0" y="138.285" width="1.94863" height="4.28699" class="st9"/>
			</g>
			<g id="shape38-111" v:mID="38" v:groupContext="shape" transform="translate(163.898,3.9161) rotate(45)">
				<title>Sheet.38</title>
				<rect x="0" y="138.285" width="1.94863" height="4.28699" class="st9"/>
			</g>
			<g id="shape41-113" v:mID="41" v:groupContext="shape" transform="translate(16.7281,197.874) rotate(-135)">
				<title>Block Arrow.197</title>
				<v:userDefs>
					<v:ud v:nameU="visVersion" v:prompt="" v:val="VT0(15):26"/>
				</v:userDefs>
				<path d="M0 142.57 L4.86 142.57 L9.72 137.71 L4.86 132.85 L0 132.85 L0 142.57 Z" class="st9"/>
			</g>
			<g id="shape42-115" v:mID="42" v:groupContext="shape" transform="translate(7.42542,5.55034) rotate(-45)">
				<title>Sheet.42</title>
				<rect x="0" y="138.285" width="1.94863" height="4.28699" class="st9"/>
			</g>
			<g id="shape43-117" v:mID="43" v:groupContext="shape" transform="translate(17.78,-4.80428) rotate(-45)">
				<title>Sheet.43</title>
				<rect x="0" y="138.285" width="1.94863" height="4.28699" class="st9"/>
			</g>
			<g id="shape45-119" v:mID="45" v:groupContext="shape" transform="translate(-51.6117,103.756) rotate(-90)">
				<title>Block Arrow.183</title>
				<v:userDefs>
					<v:ud v:nameU="visVersion" v:prompt="" v:val="VT0(15):26"/>
				</v:userDefs>
				<path d="M0 142.57 L4.86 142.57 L9.72 137.71 L4.86 132.85 L0 132.85 L0 142.57 Z" class="st9"/>
			</g>
			<g id="shape46-121" v:mID="46" v:groupContext="shape" transform="translate(77.804,-38.8155)">
				<title>Sheet.46</title>
				<rect x="0" y="138.285" width="1.94863" height="4.28699" class="st9"/>
			</g>
			<g id="shape47-123" v:mID="47" v:groupContext="shape" transform="translate(92.4476,-38.8155)">
				<title>Sheet.47</title>
				<rect x="0" y="138.285" width="1.94863" height="4.28699" class="st9"/>
			</g>
			<g id="shape50-125" v:mID="50" v:groupContext="shape" transform="translate(94.3963,-90.6745) scale(-1,1)">
				<title>Sheet.50</title>
				<rect x="0" y="138.285" width="1.94863" height="4.28699" class="st9"/>
			</g>
			<g id="shape51-127" v:mID="51" v:groupContext="shape" transform="translate(223.812,51.8971) rotate(90) scale(-1,1)">
				<title>Block Arrow.137</title>
				<v:userDefs>
					<v:ud v:nameU="visVersion" v:prompt="" v:val="VT0(15):26"/>
				</v:userDefs>
				<path d="M0 142.57 L4.86 142.57 L9.72 137.71 L4.86 132.85 L0 132.85 L0 142.57 Z" class="st9"/>
			</g>
			<g id="shape52-129" v:mID="52" v:groupContext="shape" transform="translate(79.7526,-90.6745) scale(-1,1)">
				<title>Sheet.52</title>
				<rect x="0" y="138.285" width="1.94863" height="4.28699" class="st9"/>
			</g>
			<g id="shape55-131" v:mID="55" v:groupContext="shape" transform="translate(160.803,-47.3837) rotate(45) scale(-1,1)">
				<title>Block Arrow.67</title>
				<v:userDefs>
					<v:ud v:nameU="visVersion" v:prompt="" v:val="VT0(15):26"/>
				</v:userDefs>
				<path d="M0 142.57 L4.86 142.57 L9.72 137.71 L4.86 132.85 L0 132.85 L0 142.57 Z" class="st9"/>
			</g>
			<g id="shape56-133" v:mID="56" v:groupContext="shape" transform="translate(-31.521,-56.6863) rotate(-45) scale(-1,1)">
				<title>Sheet.56</title>
				<rect x="0" y="138.285" width="1.94863" height="4.28699" class="st9"/>
			</g>
			<g id="shape57-135" v:mID="57" v:groupContext="shape" transform="translate(-41.8757,-46.3317) rotate(-45) scale(-1,1)">
				<title>Sheet.57</title>
				<rect x="0" y="138.285" width="1.94863" height="4.28699" class="st9"/>
			</g>
			<g id="shape60-137" v:mID="60" v:groupContext="shape" transform="translate(65.1986,-65.1715) scale(-1,1)">
				<title>Block Arrow</title>
				<v:userDefs>
					<v:ud v:nameU="visVersion" v:prompt="" v:val="VT0(15):26"/>
				</v:userDefs>
				<path d="M0 142.57 L4.86 142.57 L9.72 137.71 L4.86 132.85 L0 132.85 L0 142.57 Z" class="st9"/>
			</g>
			<g id="shape61-139" v:mID="61" v:groupContext="shape" transform="translate(-77.373,64.2442) rotate(-90) scale(-1,1)">
				<title>Sheet.61</title>
				<rect x="0" y="138.285" width="1.94863" height="4.28699" class="st9"/>
			</g>
			<g id="shape62-141" v:mID="62" v:groupContext="shape" transform="translate(-77.373,78.8878) rotate(-90) scale(-1,1)">
				<title>Sheet.62</title>
				<rect x="0" y="138.285" width="1.94863" height="4.28699" class="st9"/>
			</g>
			<g id="shape65-143" v:mID="65" v:groupContext="shape" transform="translate(250.041,78.8878) rotate(90)">
				<title>Sheet.65</title>
				<rect x="0" y="138.285" width="1.94863" height="4.28699" class="st9"/>
			</g>
			<g id="shape66-145" v:mID="66" v:groupContext="shape" transform="translate(250.041,64.2442) rotate(90)">
				<title>Sheet.66</title>
				<rect x="0" y="138.285" width="1.94863" height="4.28699" class="st9"/>
			</g>
			<g id="group68-147" transform="translate(250.041,64.2442) rotate(90)" v:mID="68" v:groupContext="group">
				<title>Sheet.68</title>
				<g id="shape69-148" v:mID="69" v:groupContext="shape" transform="translate(-129.416,142.572) rotate(-90)">
					<title>Block Arrow</title>
					<v:userDefs>
						<v:ud v:nameU="visVersion" v:prompt="" v:val="VT0(15):26"/>
					</v:userDefs>
					<path d="M0 142.57 L4.86 142.57 L9.72 137.71 L4.86 132.85 L0 132.85 L0 142.57 Z" class="st9"/>
				</g>
			</g>
			<g id="group71-150" transform="translate(94.7811,-65.0781) scale(-1,1)" v:mID="71" v:groupContext="group">
				<title>Sheet.71</title>
				<g id="shape72-151" v:mID="72" v:groupContext="shape" transform="translate(-129.416,142.572) rotate(-90)">
					<title>Block Arrow</title>
					<v:userDefs>
						<v:ud v:nameU="visVersion" v:prompt="" v:val="VT0(15):26"/>
					</v:userDefs>
					<path d="M0 142.57 L4.86 142.57 L9.72 137.71 L4.86 132.85 L0 132.85 L0 142.57 Z" class="st9"/>
				</g>
				<g id="shape73-153" v:mID="73" v:groupContext="shape">
					<title>Sheet.73</title>
					<rect x="0" y="138.285" width="1.94863" height="4.28699" class="st9"/>
				</g>
				<g id="shape74-155" v:mID="74" v:groupContext="shape" transform="translate(14.6436,-5.68434E-014)">
					<title>Sheet.74</title>
					<rect x="0" y="138.285" width="1.94863" height="4.28699" class="st9"/>
				</g>
			</g>
			<g id="shape33-157" v:mID="33" v:groupContext="shape" transform="translate(112.649,-93.5075) scale(-1,1)">
				<title>Sheet.33</title>
				<ellipse cx="1.37622" cy="141.109" rx="1.37622" ry="1.46223" class="st10"/>
			</g>
			<g id="shape39-159" v:mID="39" v:groupContext="shape" transform="translate(60.3406,-43.801)">
				<title>Sheet.39</title>
				<ellipse cx="1.37622" cy="141.109" rx="1.37622" ry="1.46223" class="st10"/>
			</g>
			<g id="shape44-161" v:mID="44" v:groupContext="shape" transform="translate(-29.937,98.7532) rotate(-90)">
				<title>Sheet.44</title>
				<ellipse cx="1.37622" cy="141.109" rx="1.37622" ry="1.46223" class="st10"/>
			</g>
			<g id="shape58-163" v:mID="58" v:groupContext="shape" transform="translate(62.0642,-93.8026) scale(-1,1)">
				<title>Sheet.58</title>
				<ellipse cx="1.37622" cy="141.109" rx="1.37622" ry="1.46223" class="st10"/>
			</g>
			<g id="shape48-165" v:mID="48" v:groupContext="shape" transform="translate(-14.6799,0.921946) rotate(-45)">
				<title>Sheet.48</title>
				<ellipse cx="1.37622" cy="141.109" rx="1.37622" ry="1.46223" class="st10"/>
			</g>
			<g id="shape53-167" v:mID="53" v:groupContext="shape" transform="translate(186.88,-50.937) rotate(45) scale(-1,1)">
				<title>Sheet.53</title>
				<ellipse cx="1.37622" cy="141.109" rx="1.37622" ry="1.46223" class="st10"/>
			</g>
			<g id="shape63-169" v:mID="63" v:groupContext="shape" transform="translate(-37.6355,-28.2397) rotate(-45) scale(-1,1)">
				<title>Sheet.63</title>
				<ellipse cx="1.37622" cy="141.109" rx="1.37622" ry="1.46223" class="st10"/>
			</g>
			<g id="shape70-171" v:mID="70" v:groupContext="shape" transform="translate(210.304,-28.2397) rotate(45)">
				<title>Sheet.70</title>
				<ellipse cx="1.37622" cy="141.109" rx="1.37622" ry="1.46223" class="st10"/>
			</g>
			<g id="shape49-173" v:mID="49" v:groupContext="shape"
					transform="translate(-56.132,71.1533) rotate(-89.3243) scale(-1,1)">
				<title>Sheet.49</title>
				<path d="M0 142.57 L14.31 142.57" class="st11"/>
			</g>
			<g id="shape54-179" v:mID="54" v:groupContext="shape" transform="translate(-56.1321,74.7682) rotate(-90.6708)">
				<title>Sheet.54</title>
				<path d="M0 142.57 L13.44 142.57" class="st11"/>
			</g>
			<g id="shape67-184" v:mID="67" v:groupContext="shape" transform="translate(86.7494,-69.9861)">
				<title>Sheet.67</title>
				<path d="M0 142.57 L12.88 142.57" class="st11"/>
			</g>
			<g id="shape64-189" v:mID="64" v:groupContext="shape" transform="translate(86.016,-69.9861) scale(-1,1)">
				<title>Sheet.64</title>
				<path d="M0 142.57 L12.88 142.57" class="st11"/>
			</g>
			<g id="shape34-194" v:mID="34" v:groupContext="shape" transform="translate(-15.6387,-27.1137) rotate(-45.062)">
				<title>Sheet.34</title>
				<path d="M0 142.57 L24.97 142.57" class="st11"/>
			</g>
			<g id="shape35-199" v:mID="35" v:groupContext="shape" transform="translate(186.677,173.732) rotate(135.048)">
				<title>Sheet.35</title>
				<path d="M0 142.57 L22.63 142.57" class="st11"/>
			</g>
			<g id="shape40-204" v:mID="40" v:groupContext="shape" transform="translate(187.596,-27.5833) rotate(45.0477)">
				<title>Sheet.40</title>
				<path d="M0 142.57 L22.63 142.57" class="st11"/>
			</g>
			<g id="shape59-209" v:mID="59" v:groupContext="shape"
					transform="translate(187.543,-27.4823) rotate(45.062) scale(-1,1)">
				<title>Sheet.59</title>
				<path d="M0 142.57 L24.97 142.57" class="st11"/>
			</g>
			<g id="shape75-214" v:mID="75" v:groupContext="shape" transform="translate(84.4072,-67.7251)">
				<title>Sheet.75</title>
				<ellipse cx="2.04865" cy="140.395" rx="2.04865" ry="2.17669" class="st13"/>
			</g>
		</g>
	</g>
</svg>
